ffmpeg version 3.3.9 Copyright (c) 2000-2018 the FFmpeg developers
  built with gcc 6.3.0 (Debian 6.3.0-18+deb9u1) 20170516
  configuration: --disable-decoder=amrnb --disable-decoder=libopenjpeg --disable-mips32r2 --disable-mips32r6 --disable-mips64r6 --disable-mipsdsp --disable-mipsdspr2 --disable-mipsfpu --disable-msa --disable-libopencv --disable-podpages --disable-stripping --enable-avfilter --enable-avresample --enable-gcrypt --enable-gnutls --enable-gpl --enable-libass --enable-libbluray --enable-libbs2b --enable-libcaca --enable-libcdio --enable-libfdk-aac --enable-libfontconfig --enable-libfreetype --enable-libfribidi --enable-libgme --enable-libgsm --enable-libilbc --enable-libkvazaar --enable-libmp3lame --enable-libopencore-amrnb --enable-libopencore-amrwb --enable-libopenh264 --enable-libopenjpeg --enable-libopenmpt --enable-libopus --enable-libpulse --enable-librubberband --enable-libshine --enable-libsnappy --enable-libsoxr --enable-libspeex --enable-libtesseract --enable-libtheora --enable-libvidstab --enable-libvo-amrwbenc --enable-libvorbis --enable-libvpx --enable-libx265 --enable-libxvid --enable-libzvbi --enable-nonfree --enable-opengl --enable-openssl --enable-postproc --enable-pthreads --enable-shared --enable-version3 --incdir=/usr/include/x86_64-linux-gnu --libdir=/usr/lib/x86_64-linux-gnu --prefix=/usr --toolchain=hardened --enable-frei0r --enable-chromaprint --enable-libx264 --enable-libiec61883 --enable-libdc1394 --enable-vaapi --disable-opencl --enable-libmfx --disable-altivec --shlibdir=/usr/lib/x86_64-linux-gnu
  libavutil      55. 58.100 / 55. 58.100
  libavcodec     57. 89.100 / 57. 89.100
  libavformat    57. 71.100 / 57. 71.100
  libavdevice    57.  6.100 / 57.  6.100
  libavfilter     6. 82.100 /  6. 82.100
  libavresample   3.  5.  0 /  3.  5.  0
  libswscale      4.  6.100 /  4.  6.100
  libswresample   2.  7.100 /  2.  7.100
  libpostproc    54.  5.100 / 54.  5.100
Input #0, matroska,webm, from 'Modern.Family.S10.German.DD51.Dubbed.DL.720p.AmazonHD.AVC-TVS - serienJK/Modern.Family.S10E01.Nichts.geht.ueber.eine.Parade.German.DD51.Dubbed.DL.720p.AmazonHD.AVC-TVS/tvs-mf-dd51-ded-dl-7p-azhd-avc-1001.mkv':
  Metadata:
    encoder         : libebml v1.3.7 + libmatroska v1.5.0
    creation_time   : 2019-06-20T19:49:17.000000Z
  Duration: 00:20:39.62, start: 0.000000, bitrate: 3887 kb/s
    Stream #0:0: Video: h264 (High), yuv420p(tv, bt709, progressive), 1280x720 [SAR 1:1 DAR 16:9], 25 fps, 25 tbr, 1k tbn, 50 tbc (default)
    Metadata:
      BPS-eng         : 2989259
      DURATION-eng    : 00:20:39.600000000
      NUMBER_OF_FRAMES-eng: 30990
      NUMBER_OF_BYTES-eng: 463185716
      _STATISTICS_WRITING_APP-eng: mkvmerge v33.1.0 ('Primrose') 64-bit
      _STATISTICS_WRITING_DATE_UTC-eng: 2019-06-20 19:49:17
      _STATISTICS_TAGS-eng: BPS DURATION NUMBER_OF_FRAMES NUMBER_OF_BYTES
    Stream #0:1(ger): Audio: ac3, 48000 Hz, 5.1(side), fltp, 448 kb/s (default)
    Metadata:
      BPS-eng         : 448000
      DURATION-eng    : 00:20:39.616000000
      NUMBER_OF_FRAMES-eng: 38738
      NUMBER_OF_BYTES-eng: 69418496
      _STATISTICS_WRITING_APP-eng: mkvmerge v33.1.0 ('Primrose') 64-bit
      _STATISTICS_WRITING_DATE_UTC-eng: 2019-06-20 19:49:17
      _STATISTICS_TAGS-eng: BPS DURATION NUMBER_OF_FRAMES NUMBER_OF_BYTES
    Stream #0:2(eng): Audio: ac3, 48000 Hz, 5.1(side), fltp, 448 kb/s
    Metadata:
      BPS-eng         : 448000
      DURATION-eng    : 00:20:39.584000000
      NUMBER_OF_FRAMES-eng: 38737
      NUMBER_OF_BYTES-eng: 69416704
      _STATISTICS_WRITING_APP-eng: mkvmerge v33.1.0 ('Primrose') 64-bit
      _STATISTICS_WRITING_DATE_UTC-eng: 2019-06-20 19:49:17
      _STATISTICS_TAGS-eng: BPS DURATION NUMBER_OF_FRAMES NUMBER_OF_BYTES
At least one output file must be specified
